<?xml version="1.0"?>
<svg xmlns="http://www.w3.org/2000/svg" xmlns:xlink="http://www.w3.org/1999/xlink" xmlns:svgjs="http://svgjs.com/svgjs" version="1.1" width="512" height="512" x="0" y="0" viewBox="0 0 64 64" style="enable-background:new 0 0 512 512" xml:space="preserve" class=""><g><path xmlns="http://www.w3.org/2000/svg" d="m46.212 24.646 1.9-.783a1 1 0 0 1 1.3.523 18.987 18.987 0 0 1 -25.054 24.993l-3.618 7.157a26.992 26.992 0 0 0 35.541-36.326.992.992 0 0 1 -.037-.79 1 1 0 0 1 .548-.57l1.568-.659-10.63-4.879z" fill="#f1f1f1" data-original="#000000" style="" class=""/><path xmlns="http://www.w3.org/2000/svg" d="m39.642 14.621 3.618-7.157a26.992 26.992 0 0 0 -35.541 36.326.992.992 0 0 1 .037.79 1 1 0 0 1 -.548.57l-1.568.659 10.63 4.879 1.518-11.334-1.9.783a1 1 0 0 1 -1.3-.523 18.987 18.987 0 0 1 25.054-24.993z" fill="#f1f1f1" data-original="#000000" style="" class=""/></g></svg>
